{
	"asset":{
		"generator":"Khronos glTF Blender I/O v4.1.38",
		"version":"2.0"
	},
	"extensionsUsed":[
		"KHR_materials_specular",
		"KHR_materials_ior"
	],
	"scene":0,
	"scenes":[
		{
			"name":"Scene",
			"nodes":[
				0
			]
		}
	],
	"nodes":[
		{
			"mesh":0,
			"name":"ejemplo",
			"rotation":[
				0.12242816388607025,
				0.7327024340629578,
				-0.2189813256263733,
				0.6326181292533875
			],
			"translation":[
				11.746088027954102,
				12.183771133422852,
				0.14185094833374023
			]
		}
	],
	"materials":[
		{
			"doubleSided":true,
			"extensions":{
				"KHR_materials_specular":{
					"specularFactor":0,
					"specularColorFactor":[
						1.0,
						0.9987109899520874,
						0.9205276966094971
					]
				},
				"KHR_materials_ior":{
					"ior":1
				}
			},
			"name":"ejemplo",
			"pbrMetallicRoughness":{
				"baseColorTexture":{
					"index":0
				},
				"metallicFactor":0.7545455098152161
			}
		}
	],
	"meshes":[
		{
			"name":"ejemplo",
			"primitives":[
				{
					"attributes":{
						"POSITION":0,
						"NORMAL":1,
						"TEXCOORD_0":2
					},
					"indices":3,
					"material":0
				}
			]
		}
	],
	"textures":[
		{
			"sampler":0,
			"source":0
		}
	],
	"images":[
		{
			"mimeType":"image/jpeg",
			"name":"ejemplo",
			"uri":"ejemplo.jpg"
		}
	],
	"accessors":[
		{
			"bufferView":0,
			"componentType":5126,
			"count":802223,
			"max":[
				5.421888828277588,
				-10.445314407348633,
				0.2214290052652359
			],
			"min":[
				-1.3042240142822266,
				-16.772747039794922,
				-7.111317157745361
			],
			"type":"VEC3"
		},
		{
			"bufferView":1,
			"componentType":5126,
			"count":802223,
			"type":"VEC3"
		},
		{
			"bufferView":2,
			"componentType":5126,
			"count":802223,
			"type":"VEC2"
		},
		{
			"bufferView":3,
			"componentType":5125,
			"count":4518570,
			"type":"SCALAR"
		}
	],
	"bufferViews":[
		{
			"buffer":0,
			"byteLength":9626676,
			"byteOffset":0,
			"target":34962
		},
		{
			"buffer":0,
			"byteLength":9626676,
			"byteOffset":9626676,
			"target":34962
		},
		{
			"buffer":0,
			"byteLength":6417784,
			"byteOffset":19253352,
			"target":34962
		},
		{
			"buffer":0,
			"byteLength":18074280,
			"byteOffset":25671136,
			"target":34963
		}
	],
	"samplers":[
		{
			"magFilter":9728,
			"minFilter":9984
		}
	],
	"buffers":[
		{
			"byteLength":43745416,
			"uri":"scene.bin"
		}
	]
}
